<?xml version="1.0" standalone="no"?><!DOCTYPE svg PUBLIC "-//W3C//DTD SVG 1.1//EN" "http://www.w3.org/Graphics/SVG/1.1/DTD/svg11.dtd"><svg t="1515091484248" class="icon" style="" viewBox="0 0 1024 1024" version="1.1" xmlns="http://www.w3.org/2000/svg" p-id="1887" xmlns:xlink="http://www.w3.org/1999/xlink" width="32" height="32"><defs><style type="text/css"></style></defs><path d="M510.686586 534.980387c75.896574 0 137.63059-61.739133 137.63059-137.635707 0-75.892481-61.734016-137.626497-137.63059-137.626497-75.892481 0-137.63059 61.734016-137.63059 137.626497C373.055996 473.241254 434.794106 534.980387 510.686586 534.980387L510.686586 534.980387 510.686586 534.980387zM510.686586 282.655592c63.260789 0 114.694205 51.437509 114.694205 114.694205 0 63.261812-51.433416 114.695229-114.694205 114.695229s-114.690112-51.433416-114.690112-114.695229C395.996474 334.092078 447.424774 282.655592 510.686586 282.655592L510.686586 282.655592 510.686586 282.655592zM510.66612 127.912251c-151.812591 0-275.28574 121.948423-275.28574 275.305183 0 160.595628 137.65515 324.836273 238.010789 440.265212 0.375553 0.451278 16.48444 18.459421 36.399001 18.459421l1.746784 0c19.914562 0 36.019355-18.012236 36.403095-18.459421 100.376105-115.429962 238.006695-279.674701 238.006695-440.265212C785.947767 249.860674 662.475642 127.912251 510.66612 127.912251L510.66612 127.912251 510.66612 127.912251zM513.332856 813.375955c-0.471744 0.451278-1.882883 1.503237-3.092431 2.26253-0.225127-0.647753-1.927909-1.990331-2.955308-3.065825-84.074837-96.730065-226.022757-259.963777-226.022757-409.354202 0-126.494972 102.930277-229.42832 229.404784-229.42832 126.498042 0 229.404784 102.933347 229.404784 229.42832C740.070904 552.608883 598.143451 715.845665 513.332856 813.375955L513.332856 813.375955 513.332856 813.375955zM513.332856 813.375955" p-id="1888" fill="#bfbfbf"></path></svg>