<?xml version="1.0" standalone="no"?><!DOCTYPE svg PUBLIC "-//W3C//DTD SVG 1.1//EN" "http://www.w3.org/Graphics/SVG/1.1/DTD/svg11.dtd"><svg t="1515094633139" class="icon" style="" viewBox="0 0 1161 1024" version="1.1" xmlns="http://www.w3.org/2000/svg" p-id="1216" xmlns:xlink="http://www.w3.org/1999/xlink" width="36.28125" height="32"><defs><style type="text/css"></style></defs><path d="M603.499825 34.327309l90.708621 260.864071c4.77773 31.1235 28.529875 55.967697 59.448615 62.110493h273.013156c51.121713 0 105.178318 47.367783 63.748572 75.078618l-237.726206 161.350775a67.502503 67.502503 0 0 0-27.301316 78.286523l90.776875 260.932323a51.8725 51.8725 0 0 1-81.153161 55.012151L597.288775 826.747995a79.242069 79.242069 0 0 0-88.183249 0l-237.726206 161.214268a51.940753 51.940753 0 0 1-81.221414-55.012151l90.776875-260.932323a67.502503 67.502503 0 0 0-27.301316-78.286523L16.112019 432.448744c-41.29324-27.983848 3.958691-75.078618 55.012151-75.078618h273.013156a84.565825 84.565825 0 0 0 68.253289-62.178746L503.16749 34.327309a53.988352 53.988352 0 0 1 100.400588 0" p-id="1217" fill="#ff9900"></path></svg>