<?xml version="1.0" standalone="no"?><!DOCTYPE svg PUBLIC "-//W3C//DTD SVG 1.1//EN" "http://www.w3.org/Graphics/SVG/1.1/DTD/svg11.dtd"><svg t="1515094696033" class="icon" style="" viewBox="0 0 1024 1024" version="1.1" xmlns="http://www.w3.org/2000/svg" p-id="3097" xmlns:xlink="http://www.w3.org/1999/xlink" width="32" height="32"><defs><style type="text/css"></style></defs><path d="M732.45184 437.09952c0.24576 0.38912 0.49152 0.77824 0.73728 1.17248l0.06656-0.04096c-0.82432-1.26464-1.7152-2.64704-2.19136-3.38944 0.256 0.4096 0.49152 0.80896 0.74752 1.22368C732.02176 436.40832 732.2368 436.75136 732.45184 437.09952z" p-id="3098" fill="#06c1ae"></path><path d="M947.03104 740.864c-25.6-22.528-55.296-46.08-76.8-61.44-7.61856-4.992-15.232-9.97888-22.77888-14.848-21.82656-14.74048-44.32896-28.55424-65.67936-38.21056-17.77664-9.55904-31.0016-15.32416-41.05728-18.74432-15.45728-6.016-24.23808-7.55712-31.08352-7.55712-19.456 0-35.84 10.24-51.2 29.696-8.192 12.288-17.40288 29.696-23.552 45.056-4.096 10.24-12.288 27.648-17.408 33.79712-8.192-2.048-31.73888-12.288-70.656-37.888-35.84-25.6-74.752-57.344-104.448-84.992C412.672 556.032 382.976 517.12 357.376 481.28c-25.6-37.888-35.84-61.44-37.888-70.656 6.144-4.096 23.552-12.288 33.792-17.408 15.36-6.144 31.744-12.288 45.056-23.552 21.504-15.36 29.696-31.744 29.696-51.2 0-10.24-2.048-27.648-25.6-70.656-12.288-25.6-31.744-55.296-51.2-84.992-15.36-21.504-38.912-51.2-61.44-76.8-27.648-27.648-47.104-40.96-66.56-40.96-47.104 0-100.352 68.608-114.688 87.04-19.456 25.6-66.56 96.256-66.56 159.744 0 59.392 40.96 138.24 74.752 194.56 45.056 72.704 108.544 153.6 177.152 224.256l21.504 21.504c70.656 68.608 149.504 132.096 224.256 177.152 2.30912 1.50528 4.6848 2.99008 7.0656 4.48l-0.07168 0.128c56.32 33.792 135.168 74.752 194.56 74.752 63.488 0 134.144-47.104 159.744-66.56 18.432-14.336 87.04-67.584 87.04-114.68288C987.99104 787.96288 974.67904 768.512 947.03104 740.864zM738.13504 932.352c-22.42048 0-54.0928-9.2672-91.4432-26.70592-2.22208-1.88928-4.7872-3.46112-7.71584-4.52608-19.7888-9.42592-41.3952-21.53472-64.65536-35.36384l0.02048-0.03072c-0.46592-0.30208-0.88064-0.56832-1.2544-0.81408l-0.04608 0.09216c-1.59232-0.95232-3.11296-1.82272-4.72064-2.7904-70.656-43.008-145.408-102.4-212.992-168.96l-21.504-21.504c-66.56-68.608-125.952-143.36-168.96-212.992-43.008-68.608-66.56-128-66.56-163.84 0-31.744 19.456-78.848 53.248-123.904 15.36-19.456 29.696-37.888 45.056-51.2S220.16 102.4 224.256 102.4c10.24 4.096 43.008 31.744 87.04 98.304 17.408 25.6 33.792 51.2 45.056 74.752 15.36 27.648 17.408 40.96 17.408 43.008 0 0-4.096 4.096-10.24 8.192-8.192 4.096-21.504 10.24-31.744 15.36-15.36 6.144-27.648 12.288-40.96 19.456C271.36 373.76 263.168 389.12 263.168 406.528c0 8.192 0 33.792 49.152 104.448 25.6 37.888 59.392 80.896 92.16 112.64 31.744 31.744 74.752 66.56 112.64 92.16 70.656 47.104 96.256 49.15712 104.448 49.15712 17.40288 0 31.73888-8.19712 45.056-27.648 8.192-10.24 12.28288-25.6 19.456-40.96 4.096-10.24 10.24-23.552 15.36-31.744 6.144-4.096 10.24-6.144 10.24-6.144 2.048 0 15.36 2.048 43.008 17.408 21.49888 12.288 49.152 27.648 74.752 45.056 63.488 45.056 94.208 76.8 98.304 87.04-2.048 4.096-6.144 12.288-17.408 27.648-5.19168 6.49216-11.70944 13.1584-18.92352 19.70688-6.89152 5.9392-14.2592 11.86816-21.90848 17.92512-3.43552 2.54464-6.89152 5.04832-10.36288 7.424-18.0224 13.05088-36.78208 24.5504-54.48192 33.43872C779.6224 925.92128 756.34688 932.352 738.13504 932.352z" p-id="3099" fill="#06c1ae"></path></svg>