<?xml version="1.0" standalone="no"?><!DOCTYPE svg PUBLIC "-//W3C//DTD SVG 1.1//EN" "http://www.w3.org/Graphics/SVG/1.1/DTD/svg11.dtd"><svg t="1515507945613" class="icon" style="" viewBox="0 0 1024 1024" version="1.1" xmlns="http://www.w3.org/2000/svg" p-id="2380" xmlns:xlink="http://www.w3.org/1999/xlink" width="32" height="32"><defs><style type="text/css"></style></defs><path d="M0 0h1024v1024H0z" fill="#06c1ae" p-id="2381" data-spm-anchor-id="a313x.7781069.0.i7" class="selected"></path><path d="M302.336 394.496H544a653.568 653.568 0 0 1-256 231.936l23.808 38.4a700.672 700.672 0 0 0 269.824-270.336v248.32q0 40.192-36.096 40.192-27.904 0-86.784-3.328l8.96 40.96h92.672q62.976 0 62.976-67.072V394.496h107.264v-40.192H624.128V248.576H582.4v105.728H302.336zM186.88 158.464v707.072h43.52v-40.96h563.2v40.96h43.52V158.464z m43.52 40.96h563.2v584.192H230.4z" fill="#FFFFFF" p-id="2382" data-spm-anchor-id="a313x.7781069.0.i6" class=""></path></svg>